<?xml version="1.0" encoding="UTF-8"?>
<svg xmlns="http://www.w3.org/2000/svg" width="112" height="112" viewBox="0 0 112 112">
  <path id="iconmonstr-instagram-11" d="M56,10.094c14.952,0,16.725.056,22.633.327,15.176.691,22.265,7.891,22.955,22.955.271,5.9.322,7.677.322,22.629s-.056,16.725-.322,22.629c-.7,15.05-7.765,22.265-22.955,22.955-5.908.271-7.672.327-22.633.327s-16.725-.056-22.629-.327c-15.213-.7-22.265-7.929-22.955-22.96-.271-5.9-.327-7.672-.327-22.629s.061-16.721.327-22.629c.7-15.059,7.765-22.265,22.955-22.955,5.908-.266,7.677-.322,22.629-.322ZM56,0C40.791,0,38.887.065,32.914.336,12.577,1.269,1.274,12.553.341,32.909.065,38.887,0,40.791,0,56S.065,73.117.336,79.091c.933,20.337,12.217,31.64,32.573,32.573,5.978.271,7.882.336,23.091.336s17.117-.065,23.091-.336c20.319-.933,31.649-12.217,32.569-32.573.275-5.973.341-7.882.341-23.091s-.065-17.113-.336-23.086C110.749,12.6,99.451,1.274,79.1.341,73.117.065,71.209,0,56,0Zm0,27.244A28.758,28.758,0,1,0,84.756,56,28.757,28.757,0,0,0,56,27.244Zm0,47.423A18.667,18.667,0,1,1,74.667,56,18.665,18.665,0,0,1,56,74.667ZM85.895,19.39a6.72,6.72,0,1,0,6.715,6.72A6.723,6.723,0,0,0,85.895,19.39Z" fill="#896c54"></path>
</svg>
