<?xml version="1.0" encoding="UTF-8"?>
<svg xmlns="http://www.w3.org/2000/svg" id="Layer_1" data-name="Layer 1" viewBox="0 0 112 112">
  <defs>
    <style>.cls-1{fill:#fff;}</style>
  </defs>
  <path id="iconmonstr-instagram-11" class="cls-1" d="M56,10.09c15,0,16.72.06,22.63.33,15.18.69,22.27,7.89,23,23,.27,5.9.32,7.67.32,22.62s-.06,16.73-.32,22.63c-.7,15.05-7.77,22.27-23,23-5.91.27-7.67.33-22.63.33s-16.73-.06-22.63-.33c-15.21-.7-22.26-7.93-22.95-23-.28-5.9-.33-7.67-.33-22.63s.06-16.72.33-22.63c.7-15.06,7.76-22.26,22.95-22.95C39.28,10.15,41.05,10.09,56,10.09ZM56,0C40.79,0,38.89.06,32.91.34,12.58,1.27,1.27,12.55.34,32.91.06,38.89,0,40.79,0,56S.06,73.12.34,79.09c.93,20.34,12.21,31.64,32.57,32.57,6,.28,7.88.34,23.09.34s17.12-.07,23.09-.34c20.32-.93,31.65-12.21,32.57-32.57.28-6,.34-7.88.34-23.09s-.06-17.11-.33-23.09C110.75,12.6,99.45,1.27,79.1.34,73.12.06,71.21,0,56,0Zm0,27.24A28.76,28.76,0,1,0,84.76,56h0A28.76,28.76,0,0,0,56,27.24Zm0,47.43A18.67,18.67,0,1,1,74.67,56,18.67,18.67,0,0,1,56,74.67ZM85.89,19.39a6.72,6.72,0,1,0,6.72,6.72h0A6.72,6.72,0,0,0,85.89,19.39Z"></path>
</svg>
