<svg id="Layer_1" data-name="Layer 1" xmlns="http://www.w3.org/2000/svg" viewBox="0 0 504 347.2"><path d="M599,295.45c0,69.21-36.12,188.56-133.79,235.16-9.17,4.37-14.91-6.83-7.27-13.5C524.62,458.88,547.13,398.56,487,406.5c-61.85,0-112-49.72-112-111s50.15-111,112-111,112,49.72,112,111Z" transform="translate(-95 -184.4)"/><path d="M319,295.45c0,69.21-36.12,188.56-133.79,235.16-9.17,4.37-14.91-6.83-7.27-13.5C244.62,458.88,267.13,398.56,207,406.5c-61.85,0-112-49.72-112-111s50.15-111,112-111,112,49.72,112,111Z" transform="translate(-95 -184.4)"/></svg>